<svg width="229" height="62" fill="none" viewBox="0 0 229 62" xmlns="http://www.w3.org/2000/svg"><path fill="#323236" d="M0 57.844c0-1.803 1.524-3.33 3.325-3.33h.277c.97 0 1.94.417 2.632 1.11l-.97.833c-.415-.416-1.108-.694-1.662-.694-1.108 0-2.078.971-2.078 2.08 0 1.11.97 2.081 2.078 2.081.692 0 1.247-.277 1.662-.832l.831.833c-.692.832-1.662 1.248-2.632 1.11-1.8.138-3.324-1.25-3.463-3.191zm14.546 3.19l-1.247-1.803h-1.385v1.803H10.39v-6.52h2.77c1.663 0 2.77.833 2.77 2.359 0 .832-.553 1.664-1.384 2.08l1.385 2.081h-1.385zm-1.524-5.27h-1.247v2.218h1.247c.97 0 1.385-.416 1.385-1.11 0-.693-.416-1.109-1.385-1.109zm12.328 4.022v1.248h-4.986v-6.52h4.848v1.25H21.75v1.386h3.048v1.11H21.75v1.526h3.602zm8.728-.139h-3.047l-.554 1.387h-1.524l2.909-6.52h1.385l2.91 6.52h-1.524l-.555-1.387zm-.554-1.11l-.97-2.496-.969 2.496h1.94zm7.619-2.774h-2.078v-1.248h5.68v1.248h-2.078v5.271h-1.524v-5.27zm9.005-1.248h-1.524v6.52h1.524v-6.52zm10.944 0l-2.77 6.52h-1.525l-2.77-6.52h1.662l1.94 4.577 1.94-4.577h1.523zm8.728 5.271v1.248h-4.987v-6.52h4.848v1.25h-3.325v1.386h2.91v1.11h-3.048v1.526h3.602zm10.25-5.272h2.91c1.8-.138 3.325 1.11 3.602 2.913.138 1.804-1.108 3.33-2.91 3.607H80.07v-6.52zm2.91 5.271c1.108.14 2.078-.832 2.078-1.803.138-1.11-.831-2.08-1.801-2.08h-1.662v4.022h1.385v-.139zm9.42-5.27h-1.524v6.52H92.4v-6.52zm9.143 3.19h1.385v2.636c-.692.554-1.662.832-2.632.832-1.8.139-3.463-1.387-3.463-3.19-.139-1.804 1.385-3.468 3.186-3.468h.416c.969 0 2.078.416 2.632 1.11l-.97.832a2.292 2.292 0 00-1.662-.694c-1.109 0-2.078.832-2.078 1.942 0 1.11.831 2.08 1.939 2.08h.139c.415 0 .831-.138 1.108-.277v-1.803zm7.48-3.19H107.5v6.52h1.523v-6.52zm6.096 1.248h-2.078v-1.248h5.68v1.248h-2.078v5.271h-1.524v-5.27zm11.498 3.884h-3.048l-.554 1.387h-1.524l2.909-6.52h1.524l2.909 6.52h-1.524l-.692-1.387zm-.554-1.11l-.97-2.496-1.108 2.496h2.078zm6.511-4.022h1.524v5.27h3.186v1.25h-4.71v-6.52zm14.13 5.825l.554-1.11c.693.417 1.385.695 2.078.695.831 0 1.247-.278 1.247-.694 0-1.248-3.741-.416-3.741-2.774 0-1.11.832-1.942 2.771-1.942.831 0 1.524.138 2.216.554l-.415 1.11c-.554-.277-1.108-.555-1.801-.555-.831 0-1.247.278-1.247.694 0 1.248 3.741.416 3.741 2.774 0 1.11-.832 1.942-2.771 1.942-.97.139-1.801-.139-2.632-.693zm9.143-2.496c-.139-1.942 1.385-3.607 3.324-3.745 1.94-.14 3.602 1.387 3.741 3.329.138 1.942-1.386 3.606-3.325 3.745h-.139c-1.8.139-3.463-1.248-3.463-3.19l-.138-.14zm5.541 0c0-1.11-.97-1.942-2.078-1.942-1.108 0-1.94.97-1.94 2.08s.97 1.943 2.078 1.943c1.109 0 1.94-.833 2.078-1.942l-.138-.14zm5.957-3.329h1.524v5.27h3.186v1.25h-4.71v-6.52zm8.589 3.606v-3.606h1.523v3.606c0 1.249.555 1.665 1.386 1.665.831 0 1.385-.555 1.385-1.665v-3.606h1.524v3.606c0 1.665-1.247 2.913-2.909 2.913-1.524 0-2.909-1.248-2.909-2.913zm11.775-2.358h-2.078v-1.248h5.68v1.248h-2.078v5.271h-1.524v-5.27zm9.143-1.248h-1.524v6.52h1.524v-6.52zm4.294 3.329c-.138-1.942 1.386-3.607 3.325-3.745 1.939-.14 3.602 1.387 3.74 3.329.139 1.942-1.385 3.606-3.324 3.745h-.139c-1.801.139-3.463-1.248-3.463-3.19l-.139-.14zm5.541 0c0-1.11-.969-1.942-2.078-1.942-1.108 0-1.939.97-1.939 2.08s.97 1.943 2.078 1.943c1.108 0 1.939-.833 2.078-1.942l-.139-.14zm11.776-3.329v6.52h-1.247l-3.186-3.885v3.884h-1.524v-6.52h1.247l3.186 3.885v-3.884h1.524zm4.294 5.825l.554-1.11c.693.417 1.385.695 2.078.695.831 0 1.247-.278 1.247-.694 0-1.248-3.74-.416-3.74-2.774 0-1.11.831-1.942 2.77-1.942.831 0 1.524.138 2.217.554l-.416 1.11c-.554-.277-1.108-.555-1.801-.555-.831 0-1.247.278-1.247.694 0 1.248 3.741.416 3.741 2.774 0 1.11-.831 1.942-2.771 1.942-.97.139-1.939-.139-2.632-.693zM14.268 47.163c-1.385-.694-1.8-2.497-1.108-3.746.554-.832 1.386-1.387 2.494-1.387h10.805v5.271h13.992v-2.08l.83 2.08h19.395c-4.71-1.11-8.035-5.41-8.035-10.265v-.277c0-5.687 4.572-10.265 10.113-10.404h15.1c-1.524 3.19-2.355 6.659-2.355 10.265v.694c0 3.468.831 6.797 2.216 9.987H97.11a10.384 10.384 0 01-8.035-10.126v-.277c0-5.688 4.571-10.265 10.113-10.404h14.407c-1.524 3.19-2.355 6.659-2.355 10.265v.694c0 3.467.831 6.796 2.216 9.987h19.395c-2.91-.694-5.403-2.636-6.927-5.271h31.585v5.271h13.576V35.927c.693-5.688 5.818-9.849 11.637-9.155 4.71.555 8.588 4.3 9.143 9.155V47.44h13.714v-3.052c.277.971.693 2.081 1.108 3.052h19.395a10.385 10.385 0 01-8.035-10.126V26.495h10.113V12.761h-10.39V0h-13.438v29.823c-3.74-12.622-17.177-19.836-29.784-16.09-1.247.416-2.493.832-3.602 1.387v-2.358H157.37v16.923c-2.632-9.988-11.775-16.923-22.303-16.923-8.312.138-16.069 4.439-20.364 11.651V12.762H99.188c-8.312.138-15.931 4.439-20.364 11.513V12.762H62.477c-10.805.277-20.225 7.629-22.719 18.171-2.632-10.68-12.19-18.171-23.135-18.31H8.867v13.594h7.758c2.493 0 4.987.97 6.787 2.774h-7.203C7.342 28.991.277 36.066.277 44.943c0 .694 0 1.526.138 2.22h13.853zm120.799-20.807c2.494 0 4.987.97 6.788 2.774h-13.576c1.939-1.803 4.295-2.774 6.788-2.774z"/><path fill="#323236" d="M41.225 37.663c0-5.055-.757-6.883-.757-6.883-2.705-10.864-12.444-18.608-23.697-18.608H8.764v13.875h8.007c2.597 0 5.086 1.075 7.034 2.796h-7.358C7.358 28.843 0 36.158 0 45.085c0 .753 0 1.506.108 2.258h14.175c-1.407-.752-1.84-2.473-1.082-3.872.54-.86 1.514-1.398 2.488-1.398h11.145v5.378h14.391v-9.788z"/><path fill="#818832" d="M8.72 12.172h10.703l-.9 12.842-9.802 1.032V12.172z"/><path fill="#C2D207" d="M24.237 5.036l-15.12 21.01h9.491c3.672 0 6.63-2.739 9.221-5.23L44 5.035H24.237z"/></svg>