<?xml version="1.0" encoding="UTF-8" standalone="no"?>
<!DOCTYPE svg PUBLIC "-//W3C//DTD SVG 1.1//EN" "http://www.w3.org/Graphics/SVG/1.1/DTD/svg11.dtd">
<svg xmlns="http://www.w3.org/2000/svg" version="1.1" viewBox="0.00 0.00 226.00 243.00">
<g stroke-width="2.00" fill="none" stroke-linecap="butt">
<path stroke="#6e6d6d" vector-effect="non-scaling-stroke" d="
  M 180.33 121.27
  A 71.02 71.02 0.0 0 0 109.31 50.25
  A 71.02 71.02 0.0 0 0 38.29 121.27
  A 71.02 71.02 0.0 0 0 109.31 192.29
  A 71.02 71.02 0.0 0 0 180.33 121.27"
/>
<path stroke="#9d9d9d" vector-effect="non-scaling-stroke" d="
  M 175.34 121.28
  A 66.01 66.01 0.0 0 0 109.33 55.27
  A 66.01 66.01 0.0 0 0 43.32 121.28
  A 66.01 66.01 0.0 0 0 109.33 187.29
  A 66.01 66.01 0.0 0 0 175.34 121.28"
/>
<path stroke="#bbbbbb" vector-effect="non-scaling-stroke" d="
  M 109.39 76.05
  Q 110.64 76.05 111.02 73.89
  Q 111.19 72.89 111.10 67.03
  A 1.29 1.22 60.5 0 1 111.26 66.39
  L 112.74 63.80
  A 1.05 1.05 0.0 0 0 111.83 62.24
  Q 111.33 62.23 109.38 62.24
  Q 107.42 62.24 106.92 62.25
  A 1.05 1.05 0.0 0 0 106.02 63.82
  L 107.52 66.40
  A 1.29 1.22 -60.8 0 1 107.68 67.04
  Q 107.62 72.90 107.80 73.90
  Q 108.18 76.05 109.39 76.05"
/>
<path stroke="#bbbbbb" vector-effect="non-scaling-stroke" d="
  M 132.09 81.60
  Q 133.13 82.21 134.49 80.61
  Q 135.12 79.86 137.92 74.95
  A 1.24 1.18 -89.0 0 1 138.36 74.50
  L 140.85 73.07
  A 1.01 1.01 0.0 0 0 140.87 71.33
  Q 140.46 71.08 138.83 70.13
  Q 137.20 69.18 136.78 68.94
  A 1.01 1.01 0.0 0 0 135.27 69.80
  L 135.25 72.68
  A 1.24 1.18 -30.3 0 1 135.08 73.28
  Q 132.16 78.12 131.82 79.04
  Q 131.08 81.01 132.09 81.60"
/>
<path stroke="#bbbbbb" vector-effect="non-scaling-stroke" d="
  M 86.66 82.12
  Q 87.75 81.49 87.01 79.43
  Q 86.67 78.48 83.69 73.41
  A 1.29 1.22 30.9 0 1 83.52 72.78
  L 83.53 69.79
  A 1.05 1.05 0.0 0 0 81.97 68.87
  Q 81.53 69.11 79.83 70.08
  Q 78.13 71.05 77.70 71.31
  A 1.05 1.05 0.0 0 0 77.69 73.12
  L 80.27 74.63
  A 1.29 1.22 89.7 0 1 80.72 75.10
  Q 83.56 80.25 84.21 81.03
  Q 85.61 82.71 86.66 82.12"
/>
<path stroke="#bbbbbb" vector-effect="non-scaling-stroke" d="
  M 70.08 98.63
  Q 70.70 97.54 69.03 96.14
  Q 68.25 95.48 63.14 92.61
  A 1.29 1.22 0.7 0 1 62.67 92.15
  L 61.17 89.57
  A 1.05 1.05 0.0 0 0 59.37 89.56
  Q 59.11 89.99 58.13 91.69
  Q 57.15 93.38 56.91 93.82
  A 1.05 1.05 0.0 0 0 57.81 95.38
  L 60.80 95.39
  A 1.29 1.22 59.4 0 1 61.42 95.57
  Q 66.46 98.57 67.42 98.92
  Q 69.47 99.67 70.08 98.63"
/>
<path stroke="#bbbbbb" vector-effect="non-scaling-stroke" d="
  M 148.75 98.46
  Q 149.34 99.49 151.35 98.76
  Q 152.28 98.43 157.22 95.51
  A 1.26 1.19 -59.2 0 1 157.83 95.34
  L 160.75 95.35
  A 1.03 1.02 75.4 0 0 161.64 93.82
  Q 161.40 93.40 160.45 91.74
  Q 159.50 90.08 159.25 89.66
  A 1.03 1.02 45.0 0 0 157.49 89.65
  L 156.02 92.17
  A 1.26 1.19 -0.4 0 1 155.56 92.62
  Q 150.55 95.40 149.79 96.03
  Q 148.14 97.40 148.75 98.46"
/>
<path stroke="#afafaf" vector-effect="non-scaling-stroke" d="
  M 133.17 121.72
  L 128.15 102.80
  A 0.93 0.92 -7.2 0 0 127.25 102.11
  L 120.31 102.11
  A 1.09 1.09 0.0 0 0 119.26 102.91
  L 114.10 121.86
  A 0.29 0.29 0.0 0 1 113.54 121.85
  L 109.11 102.75
  A 0.78 0.78 0.0 0 0 108.35 102.15
  L 74.00 102.15
  A 0.51 0.51 0.0 0 0 73.49 102.66
  L 73.49 136.52
  A 0.68 0.68 0.0 0 0 74.17 137.20
  L 82.43 137.20
  A 0.53 0.52 -90.0 0 0 82.95 136.67
  L 82.95 128.29
  A 1.00 0.99 0.6 0 1 83.97 127.30
  Q 89.63 127.39 95.50 127.29
  Q 101.31 127.19 103.80 122.91
  A 0.24 0.24 0.0 0 1 104.24 122.97
  L 107.90 136.75
  A 0.62 0.62 0.0 0 0 108.50 137.21
  L 117.71 137.21
  A 0.57 0.56 7.2 0 0 118.26 136.79
  L 123.31 118.26
  A 0.33 0.32 27.7 0 1 123.84 118.10
  Q 124.09 118.31 124.18 118.64
  Q 125.23 122.37 129.08 136.71
  A 0.67 0.67 0.0 0 0 129.73 137.21
  L 138.73 137.21
  A 0.77 0.76 7.4 0 0 139.47 136.64
  L 148.64 102.95
  A 0.66 0.65 -82.2 0 0 148.01 102.12
  L 139.16 102.12
  A 0.99 0.97 -83.2 0 0 138.21 102.88
  L 133.88 121.71
  A 0.37 0.37 0.0 0 1 133.17 121.72"
/>
<path stroke="#bbbbbb" vector-effect="non-scaling-stroke" d="
  M 64.05 121.20
  Q 64.05 119.99 61.89 119.61
  Q 60.88 119.43 55.00 119.51
  A 1.29 1.23 -29.4 0 1 54.37 119.35
  L 51.77 117.86
  A 1.05 1.05 0.0 0 0 50.20 118.77
  Q 50.19 119.27 50.20 121.23
  Q 50.20 123.19 50.20 123.69
  A 1.05 1.05 0.0 0 0 51.77 124.59
  L 54.37 123.10
  A 1.29 1.23 29.3 0 1 55.00 122.94
  Q 60.89 123.01 61.89 122.84
  Q 64.05 122.46 64.05 121.20"
/>
<path stroke="#bbbbbb" vector-effect="non-scaling-stroke" d="
  M 154.59 121.19
  Q 154.59 122.45 156.76 122.83
  Q 157.76 123.01 163.67 122.95
  A 1.30 1.23 -29.3 0 1 164.31 123.11
  L 166.92 124.61
  A 1.06 1.06 0.0 0 0 168.50 123.71
  Q 168.50 123.20 168.51 121.23
  Q 168.51 119.26 168.51 118.76
  A 1.06 1.06 0.0 0 0 166.93 117.85
  L 164.32 119.34
  A 1.30 1.23 29.5 0 1 163.68 119.50
  Q 157.77 119.42 156.76 119.59
  Q 154.59 119.97 154.59 121.19"
/>
<path stroke="#bbbbbb" vector-effect="non-scaling-stroke" d="
  M 70.14 143.80
  Q 69.52 142.74 67.44 143.51
  Q 66.48 143.87 61.39 146.93
  A 1.30 1.24 -59.7 0 1 60.76 147.12
  L 57.73 147.14
  A 1.06 1.06 0.0 0 0 56.82 148.72
  Q 57.07 149.16 58.07 150.87
  Q 59.07 152.58 59.33 153.02
  A 1.06 1.06 0.0 0 0 61.16 153.00
  L 62.66 150.38
  A 1.30 1.24 -0.9 0 1 63.14 149.92
  Q 68.30 146.99 69.09 146.33
  Q 70.78 144.90 70.14 143.80"
/>
<path stroke="#bbbbbb" vector-effect="non-scaling-stroke" d="
  M 148.53 143.87
  Q 147.89 144.96 149.58 146.38
  Q 150.36 147.04 155.51 149.95
  A 1.30 1.23 0.8 0 1 155.98 150.41
  L 157.48 153.02
  A 1.06 1.06 0.0 0 0 159.30 153.03
  Q 159.56 152.60 160.55 150.89
  Q 161.55 149.19 161.80 148.75
  A 1.06 1.06 0.0 0 0 160.89 147.17
  L 157.88 147.15
  A 1.30 1.23 59.6 0 1 157.24 146.97
  Q 152.17 143.93 151.21 143.58
  Q 149.14 142.81 148.53 143.87"
/>
<path stroke="#bbbbbb" vector-effect="non-scaling-stroke" d="
  M 86.60 160.34
  Q 85.54 159.73 84.12 161.44
  Q 83.46 162.23 80.58 167.44
  A 1.31 1.24 -89.7 0 1 80.12 167.92
  L 77.50 169.45
  A 1.07 1.06 44.9 0 0 77.51 171.29
  Q 77.95 171.55 79.67 172.53
  Q 81.40 173.51 81.84 173.76
  A 1.07 1.06 14.5 0 0 83.42 172.83
  L 83.41 169.80
  A 1.31 1.24 -30.9 0 1 83.59 169.16
  Q 86.61 164.03 86.96 163.06
  Q 87.71 160.97 86.60 160.34"
/>
<path stroke="#bbbbbb" vector-effect="non-scaling-stroke" d="
  M 132.03 160.27
  Q 130.91 160.89 131.66 163.00
  Q 132.00 163.98 135.01 169.17
  A 1.31 1.25 31.3 0 1 135.18 169.81
  L 135.15 172.86
  A 1.07 1.07 0.0 0 0 136.74 173.81
  Q 137.19 173.56 138.93 172.58
  Q 140.67 171.60 141.12 171.34
  A 1.07 1.07 0.0 0 0 141.13 169.50
  L 138.51 167.94
  A 1.31 1.25 -90.0 0 1 138.05 167.45
  Q 135.18 162.19 134.52 161.39
  Q 133.11 159.66 132.03 160.27"
/>
<path stroke="#bbbbbb" vector-effect="non-scaling-stroke" d="
  M 109.36 166.47
  Q 108.11 166.48 107.74 168.63
  Q 107.57 169.63 107.67 175.49
  A 1.28 1.22 60.4 0 1 107.51 176.12
  L 106.04 178.71
  A 1.05 1.05 0.0 0 0 106.94 180.27
  Q 107.44 180.27 109.40 180.27
  Q 111.35 180.26 111.85 180.25
  A 1.05 1.05 0.0 0 0 112.74 178.68
  L 111.24 176.10
  A 1.28 1.22 -60.9 0 1 111.08 175.47
  Q 111.13 169.61 110.95 168.62
  Q 110.56 166.47 109.36 166.47"
/>
<path stroke="#afafaf" vector-effect="non-scaling-stroke" d="
  M 82.92 110.28
  L 83.02 119.30
  A 0.65 0.65 0.0 0 0 83.67 119.95
  L 91.86 119.86
  A 3.36 3.16 -0.6 0 0 95.19 116.67
  L 95.15 112.67
  A 3.36 3.16 -0.6 0 0 91.76 109.54
  L 83.57 109.63
  A 0.65 0.65 0.0 0 0 82.92 110.28"
/>
</g>
<path fill="#8c8b8b" d="
  M 67.66 43.84
  Q 68.31 44.53 70.29 46.24
  C 77.28 52.30 87.83 48.42 89.05 38.85
  Q 89.30 36.92 89.55 35.52
  A 1.13 1.12 87.5 0 1 90.34 34.65
  Q 98.46 32.36 107.78 32.92
  A 0.87 0.87 0.0 0 1 108.55 33.52
  C 110.19 38.67 112.71 42.84 118.42 43.57
  C 125.25 44.45 128.35 41.51 131.55 36.12
  A 1.14 1.14 0.0 0 1 132.76 35.58
  Q 140.36 37.17 147.41 40.98
  A 3.15 3.14 -74.8 0 1 149.06 43.88
  C 148.96 46.30 148.74 49.45 149.55 51.53
  Q 152.02 57.93 159.05 58.91
  C 162.24 59.35 166.01 57.65 168.87 56.14
  A 0.98 0.97 -38.4 0 1 169.96 56.26
  Q 176.25 61.68 181.03 69.02
  A 1.04 1.01 40.9 0 1 181.11 69.97
  Q 180.49 71.36 179.20 73.39
  C 174.39 80.92 179.32 90.77 188.29 90.96
  Q 189.62 90.98 192.43 90.99
  A 0.98 0.97 78.7 0 1 193.33 91.60
  Q 196.86 100.41 197.15 108.31
  A 0.92 0.91 75.9 0 1 196.65 109.16
  C 191.97 111.55 188.53 113.62 187.88 118.84
  C 186.96 126.24 190.80 129.98 196.85 133.20
  A 0.82 0.81 17.1 0 1 197.29 134.01
  Q 196.44 142.49 193.25 151.04
  A 0.65 0.65 0.0 0 1 192.52 151.45
  C 187.13 150.44 181.90 151.60 179.03 156.45
  C 175.38 162.60 177.83 166.67 181.31 171.91
  A 1.05 1.04 45.6 0 1 181.30 173.08
  Q 177.09 179.32 170.62 185.27
  A 1.94 1.93 -51.4 0 1 168.36 185.53
  C 163.36 182.68 157.31 181.94 152.78 185.66
  C 148.90 188.86 148.41 194.76 149.29 199.57
  A 0.80 0.79 70.8 0 1 148.90 200.39
  Q 141.31 204.68 132.97 206.67
  A 0.97 0.97 0.0 0 1 131.92 206.22
  Q 130.50 203.81 128.63 201.72
  C 125.33 198.05 118.48 197.89 114.68 199.75
  C 110.85 201.64 110.03 205.31 108.59 209.20
  A 0.85 0.84 8.1 0 1 107.86 209.74
  Q 99.31 210.28 90.51 207.54
  A 1.01 0.99 -86.4 0 1 89.82 206.74
  C 88.81 200.51 88.61 195.76 81.18 193.82
  C 74.56 192.08 71.86 194.43 67.62 198.34
  A 0.82 0.81 -54.1 0 1 66.73 198.49
  Q 60.07 195.49 52.85 188.77
  A 1.42 1.41 31.5 0 1 52.48 187.25
  C 54.11 182.79 55.70 177.73 52.28 173.45
  C 48.27 168.44 42.85 168.14 37.05 169.76
  A 1.62 1.62 0.0 0 1 35.21 169.01
  L 27.83 156.23
  A 2.35 2.35 0.0 0 1 28.32 153.28
  C 32.70 149.48 35.00 146.65 33.85 139.96
  C 32.72 133.38 27.60 131.91 21.99 130.50
  A 1.02 1.01 -87.5 0 1 21.23 129.66
  Q 20.08 122.10 21.28 112.86
  A 1.30 1.29 89.7 0 1 22.37 111.75
  Q 25.02 111.37 27.37 110.37
  C 33.11 107.93 35.19 101.16 33.41 95.58
  C 32.62 93.12 30.25 91.13 28.28 89.25
  A 1.62 1.60 31.7 0 1 27.87 87.56
  Q 30.76 79.30 35.20 73.19
  A 1.63 1.62 -64.5 0 1 36.94 72.57
  Q 46.06 75.00 50.86 69.60
  C 55.21 64.69 54.05 60.23 52.07 54.67
  A 1.04 1.03 58.5 0 1 52.33 53.58
  Q 58.60 47.65 66.51 43.64
  A 0.97 0.97 0.0 0 1 67.66 43.84
  Z
  M 180.33 121.27
  A 71.02 71.02 0.0 0 0 109.31 50.25
  A 71.02 71.02 0.0 0 0 38.29 121.27
  A 71.02 71.02 0.0 0 0 109.31 192.29
  A 71.02 71.02 0.0 0 0 180.33 121.27
  Z"
/>
<path fill="#4f4f4f" d="
  M 180.33 121.27
  A 71.02 71.02 0.0 0 1 109.31 192.29
  A 71.02 71.02 0.0 0 1 38.29 121.27
  A 71.02 71.02 0.0 0 1 109.31 50.25
  A 71.02 71.02 0.0 0 1 180.33 121.27
  Z
  M 175.34 121.28
  A 66.01 66.01 0.0 0 0 109.33 55.27
  A 66.01 66.01 0.0 0 0 43.32 121.28
  A 66.01 66.01 0.0 0 0 109.33 187.29
  A 66.01 66.01 0.0 0 0 175.34 121.28
  Z"
/>
<path fill="#eaeaea" d="
  M 175.34 121.28
  A 66.01 66.01 0.0 0 1 109.33 187.29
  A 66.01 66.01 0.0 0 1 43.32 121.28
  A 66.01 66.01 0.0 0 1 109.33 55.27
  A 66.01 66.01 0.0 0 1 175.34 121.28
  Z
  M 109.39 76.05
  Q 110.64 76.05 111.02 73.89
  Q 111.19 72.89 111.10 67.03
  A 1.29 1.22 60.5 0 1 111.26 66.39
  L 112.74 63.80
  A 1.05 1.05 0.0 0 0 111.83 62.24
  Q 111.33 62.23 109.38 62.24
  Q 107.42 62.24 106.92 62.25
  A 1.05 1.05 0.0 0 0 106.02 63.82
  L 107.52 66.40
  A 1.29 1.22 -60.8 0 1 107.68 67.04
  Q 107.62 72.90 107.80 73.90
  Q 108.18 76.05 109.39 76.05
  Z
  M 132.09 81.60
  Q 133.13 82.21 134.49 80.61
  Q 135.12 79.86 137.92 74.95
  A 1.24 1.18 -89.0 0 1 138.36 74.50
  L 140.85 73.07
  A 1.01 1.01 0.0 0 0 140.87 71.33
  Q 140.46 71.08 138.83 70.13
  Q 137.20 69.18 136.78 68.94
  A 1.01 1.01 0.0 0 0 135.27 69.80
  L 135.25 72.68
  A 1.24 1.18 -30.3 0 1 135.08 73.28
  Q 132.16 78.12 131.82 79.04
  Q 131.08 81.01 132.09 81.60
  Z
  M 86.66 82.12
  Q 87.75 81.49 87.01 79.43
  Q 86.67 78.48 83.69 73.41
  A 1.29 1.22 30.9 0 1 83.52 72.78
  L 83.53 69.79
  A 1.05 1.05 0.0 0 0 81.97 68.87
  Q 81.53 69.11 79.83 70.08
  Q 78.13 71.05 77.70 71.31
  A 1.05 1.05 0.0 0 0 77.69 73.12
  L 80.27 74.63
  A 1.29 1.22 89.7 0 1 80.72 75.10
  Q 83.56 80.25 84.21 81.03
  Q 85.61 82.71 86.66 82.12
  Z
  M 70.08 98.63
  Q 70.70 97.54 69.03 96.14
  Q 68.25 95.48 63.14 92.61
  A 1.29 1.22 0.7 0 1 62.67 92.15
  L 61.17 89.57
  A 1.05 1.05 0.0 0 0 59.37 89.56
  Q 59.11 89.99 58.13 91.69
  Q 57.15 93.38 56.91 93.82
  A 1.05 1.05 0.0 0 0 57.81 95.38
  L 60.80 95.39
  A 1.29 1.22 59.4 0 1 61.42 95.57
  Q 66.46 98.57 67.42 98.92
  Q 69.47 99.67 70.08 98.63
  Z
  M 148.75 98.46
  Q 149.34 99.49 151.35 98.76
  Q 152.28 98.43 157.22 95.51
  A 1.26 1.19 -59.2 0 1 157.83 95.34
  L 160.75 95.35
  A 1.03 1.02 75.4 0 0 161.64 93.82
  Q 161.40 93.40 160.45 91.74
  Q 159.50 90.08 159.25 89.66
  A 1.03 1.02 45.0 0 0 157.49 89.65
  L 156.02 92.17
  A 1.26 1.19 -0.4 0 1 155.56 92.62
  Q 150.55 95.40 149.79 96.03
  Q 148.14 97.40 148.75 98.46
  Z
  M 133.17 121.72
  L 128.15 102.80
  A 0.93 0.92 -7.2 0 0 127.25 102.11
  L 120.31 102.11
  A 1.09 1.09 0.0 0 0 119.26 102.91
  L 114.10 121.86
  A 0.29 0.29 0.0 0 1 113.54 121.85
  L 109.11 102.75
  A 0.78 0.78 0.0 0 0 108.35 102.15
  L 74.00 102.15
  A 0.51 0.51 0.0 0 0 73.49 102.66
  L 73.49 136.52
  A 0.68 0.68 0.0 0 0 74.17 137.20
  L 82.43 137.20
  A 0.53 0.52 -90.0 0 0 82.95 136.67
  L 82.95 128.29
  A 1.00 0.99 0.6 0 1 83.97 127.30
  Q 89.63 127.39 95.50 127.29
  Q 101.31 127.19 103.80 122.91
  A 0.24 0.24 0.0 0 1 104.24 122.97
  L 107.90 136.75
  A 0.62 0.62 0.0 0 0 108.50 137.21
  L 117.71 137.21
  A 0.57 0.56 7.2 0 0 118.26 136.79
  L 123.31 118.26
  A 0.33 0.32 27.7 0 1 123.84 118.10
  Q 124.09 118.31 124.18 118.64
  Q 125.23 122.37 129.08 136.71
  A 0.67 0.67 0.0 0 0 129.73 137.21
  L 138.73 137.21
  A 0.77 0.76 7.4 0 0 139.47 136.64
  L 148.64 102.95
  A 0.66 0.65 -82.2 0 0 148.01 102.12
  L 139.16 102.12
  A 0.99 0.97 -83.2 0 0 138.21 102.88
  L 133.88 121.71
  A 0.37 0.37 0.0 0 1 133.17 121.72
  Z
  M 64.05 121.20
  Q 64.05 119.99 61.89 119.61
  Q 60.88 119.43 55.00 119.51
  A 1.29 1.23 -29.4 0 1 54.37 119.35
  L 51.77 117.86
  A 1.05 1.05 0.0 0 0 50.20 118.77
  Q 50.19 119.27 50.20 121.23
  Q 50.20 123.19 50.20 123.69
  A 1.05 1.05 0.0 0 0 51.77 124.59
  L 54.37 123.10
  A 1.29 1.23 29.3 0 1 55.00 122.94
  Q 60.89 123.01 61.89 122.84
  Q 64.05 122.46 64.05 121.20
  Z
  M 154.59 121.19
  Q 154.59 122.45 156.76 122.83
  Q 157.76 123.01 163.67 122.95
  A 1.30 1.23 -29.3 0 1 164.31 123.11
  L 166.92 124.61
  A 1.06 1.06 0.0 0 0 168.50 123.71
  Q 168.50 123.20 168.51 121.23
  Q 168.51 119.26 168.51 118.76
  A 1.06 1.06 0.0 0 0 166.93 117.85
  L 164.32 119.34
  A 1.30 1.23 29.5 0 1 163.68 119.50
  Q 157.77 119.42 156.76 119.59
  Q 154.59 119.97 154.59 121.19
  Z
  M 70.14 143.80
  Q 69.52 142.74 67.44 143.51
  Q 66.48 143.87 61.39 146.93
  A 1.30 1.24 -59.7 0 1 60.76 147.12
  L 57.73 147.14
  A 1.06 1.06 0.0 0 0 56.82 148.72
  Q 57.07 149.16 58.07 150.87
  Q 59.07 152.58 59.33 153.02
  A 1.06 1.06 0.0 0 0 61.16 153.00
  L 62.66 150.38
  A 1.30 1.24 -0.9 0 1 63.14 149.92
  Q 68.30 146.99 69.09 146.33
  Q 70.78 144.90 70.14 143.80
  Z
  M 148.53 143.87
  Q 147.89 144.96 149.58 146.38
  Q 150.36 147.04 155.51 149.95
  A 1.30 1.23 0.8 0 1 155.98 150.41
  L 157.48 153.02
  A 1.06 1.06 0.0 0 0 159.30 153.03
  Q 159.56 152.60 160.55 150.89
  Q 161.55 149.19 161.80 148.75
  A 1.06 1.06 0.0 0 0 160.89 147.17
  L 157.88 147.15
  A 1.30 1.23 59.6 0 1 157.24 146.97
  Q 152.17 143.93 151.21 143.58
  Q 149.14 142.81 148.53 143.87
  Z
  M 86.60 160.34
  Q 85.54 159.73 84.12 161.44
  Q 83.46 162.23 80.58 167.44
  A 1.31 1.24 -89.7 0 1 80.12 167.92
  L 77.50 169.45
  A 1.07 1.06 44.9 0 0 77.51 171.29
  Q 77.95 171.55 79.67 172.53
  Q 81.40 173.51 81.84 173.76
  A 1.07 1.06 14.5 0 0 83.42 172.83
  L 83.41 169.80
  A 1.31 1.24 -30.9 0 1 83.59 169.16
  Q 86.61 164.03 86.96 163.06
  Q 87.71 160.97 86.60 160.34
  Z
  M 132.03 160.27
  Q 130.91 160.89 131.66 163.00
  Q 132.00 163.98 135.01 169.17
  A 1.31 1.25 31.3 0 1 135.18 169.81
  L 135.15 172.86
  A 1.07 1.07 0.0 0 0 136.74 173.81
  Q 137.19 173.56 138.93 172.58
  Q 140.67 171.60 141.12 171.34
  A 1.07 1.07 0.0 0 0 141.13 169.50
  L 138.51 167.94
  A 1.31 1.25 -90.0 0 1 138.05 167.45
  Q 135.18 162.19 134.52 161.39
  Q 133.11 159.66 132.03 160.27
  Z
  M 109.36 166.47
  Q 108.11 166.48 107.74 168.63
  Q 107.57 169.63 107.67 175.49
  A 1.28 1.22 60.4 0 1 107.51 176.12
  L 106.04 178.71
  A 1.05 1.05 0.0 0 0 106.94 180.27
  Q 107.44 180.27 109.40 180.27
  Q 111.35 180.26 111.85 180.25
  A 1.05 1.05 0.0 0 0 112.74 178.68
  L 111.24 176.10
  A 1.28 1.22 -60.9 0 1 111.08 175.47
  Q 111.13 169.61 110.95 168.62
  Q 110.56 166.47 109.36 166.47
  Z"
/>
<path fill="#8c8b8b" d="
  M 109.39 76.05
  Q 108.18 76.05 107.80 73.90
  Q 107.62 72.90 107.68 67.04
  A 1.29 1.22 -60.8 0 0 107.52 66.40
  L 106.02 63.82
  A 1.05 1.05 0.0 0 1 106.92 62.25
  Q 107.42 62.24 109.38 62.24
  Q 111.33 62.23 111.83 62.24
  A 1.05 1.05 0.0 0 1 112.74 63.80
  L 111.26 66.39
  A 1.29 1.22 60.5 0 0 111.10 67.03
  Q 111.19 72.89 111.02 73.89
  Q 110.64 76.05 109.39 76.05
  Z"
/>
<path fill="#8c8b8b" d="
  M 132.09 81.60
  Q 131.08 81.01 131.82 79.04
  Q 132.16 78.12 135.08 73.28
  A 1.24 1.18 -30.3 0 0 135.25 72.68
  L 135.27 69.80
  A 1.01 1.01 0.0 0 1 136.78 68.94
  Q 137.20 69.18 138.83 70.13
  Q 140.46 71.08 140.87 71.33
  A 1.01 1.01 0.0 0 1 140.85 73.07
  L 138.36 74.50
  A 1.24 1.18 -89.0 0 0 137.92 74.95
  Q 135.12 79.86 134.49 80.61
  Q 133.13 82.21 132.09 81.60
  Z"
/>
<path fill="#8c8b8b" d="
  M 86.66 82.12
  Q 85.61 82.71 84.21 81.03
  Q 83.56 80.25 80.72 75.10
  A 1.29 1.22 89.7 0 0 80.27 74.63
  L 77.69 73.12
  A 1.05 1.05 0.0 0 1 77.70 71.31
  Q 78.13 71.05 79.83 70.08
  Q 81.53 69.11 81.97 68.87
  A 1.05 1.05 0.0 0 1 83.53 69.79
  L 83.52 72.78
  A 1.29 1.22 30.9 0 0 83.69 73.41
  Q 86.67 78.48 87.01 79.43
  Q 87.75 81.49 86.66 82.12
  Z"
/>
<path fill="#8c8b8b" d="
  M 70.08 98.63
  Q 69.47 99.67 67.42 98.92
  Q 66.46 98.57 61.42 95.57
  A 1.29 1.22 59.4 0 0 60.80 95.39
  L 57.81 95.38
  A 1.05 1.05 0.0 0 1 56.91 93.82
  Q 57.15 93.38 58.13 91.69
  Q 59.11 89.99 59.37 89.56
  A 1.05 1.05 0.0 0 1 61.17 89.57
  L 62.67 92.15
  A 1.29 1.22 0.7 0 0 63.14 92.61
  Q 68.25 95.48 69.03 96.14
  Q 70.70 97.54 70.08 98.63
  Z"
/>
<path fill="#8c8b8b" d="
  M 148.75 98.46
  Q 148.14 97.40 149.79 96.03
  Q 150.55 95.40 155.56 92.62
  A 1.26 1.19 -0.4 0 0 156.02 92.17
  L 157.49 89.65
  A 1.03 1.02 45.0 0 1 159.25 89.66
  Q 159.50 90.08 160.45 91.74
  Q 161.40 93.40 161.64 93.82
  A 1.03 1.02 75.4 0 1 160.75 95.35
  L 157.83 95.34
  A 1.26 1.19 -59.2 0 0 157.22 95.51
  Q 152.28 98.43 151.35 98.76
  Q 149.34 99.49 148.75 98.46
  Z"
/>
<path fill="#737373" d="
  M 133.17 121.72
  A 0.37 0.37 0.0 0 0 133.88 121.71
  L 138.21 102.88
  A 0.99 0.97 -83.2 0 1 139.16 102.12
  L 148.01 102.12
  A 0.66 0.65 -82.2 0 1 148.64 102.95
  L 139.47 136.64
  A 0.77 0.76 7.4 0 1 138.73 137.21
  L 129.73 137.21
  A 0.67 0.67 0.0 0 1 129.08 136.71
  Q 125.23 122.37 124.18 118.64
  Q 124.09 118.31 123.84 118.10
  A 0.33 0.32 27.7 0 0 123.31 118.26
  L 118.26 136.79
  A 0.57 0.56 7.2 0 1 117.71 137.21
  L 108.50 137.21
  A 0.62 0.62 0.0 0 1 107.90 136.75
  L 104.24 122.97
  A 0.24 0.24 0.0 0 0 103.80 122.91
  Q 101.31 127.19 95.50 127.29
  Q 89.63 127.39 83.97 127.30
  A 1.00 0.99 0.6 0 0 82.95 128.29
  L 82.95 136.67
  A 0.53 0.52 90.0 0 1 82.43 137.20
  L 74.17 137.20
  A 0.68 0.68 0.0 0 1 73.49 136.52
  L 73.49 102.66
  A 0.51 0.51 0.0 0 1 74.00 102.15
  L 108.35 102.15
  A 0.78 0.78 0.0 0 1 109.11 102.75
  L 113.54 121.85
  A 0.29 0.29 0.0 0 0 114.10 121.86
  L 119.26 102.91
  A 1.09 1.09 0.0 0 1 120.31 102.11
  L 127.25 102.11
  A 0.93 0.92 -7.2 0 1 128.15 102.80
  L 133.17 121.72
  Z
  M 82.92 110.28
  L 83.02 119.30
  A 0.65 0.65 0.0 0 0 83.67 119.95
  L 91.86 119.86
  A 3.36 3.16 -0.6 0 0 95.19 116.67
  L 95.15 112.67
  A 3.36 3.16 -0.6 0 0 91.76 109.54
  L 83.57 109.63
  A 0.65 0.65 0.0 0 0 82.92 110.28
  Z"
/>
<path fill="#eaeaea" d="
  M 82.92 110.28
  A 0.65 0.65 0.0 0 1 83.57 109.63
  L 91.76 109.54
  A 3.36 3.16 -0.6 0 1 95.15 112.67
  L 95.19 116.67
  A 3.36 3.16 -0.6 0 1 91.86 119.86
  L 83.67 119.95
  A 0.65 0.65 0.0 0 1 83.02 119.30
  L 82.92 110.28
  Z"
/>
<path fill="#8c8b8b" d="
  M 64.05 121.20
  Q 64.05 122.46 61.89 122.84
  Q 60.89 123.01 55.00 122.94
  A 1.29 1.23 29.3 0 0 54.37 123.10
  L 51.77 124.59
  A 1.05 1.05 0.0 0 1 50.20 123.69
  Q 50.20 123.19 50.20 121.23
  Q 50.19 119.27 50.20 118.77
  A 1.05 1.05 0.0 0 1 51.77 117.86
  L 54.37 119.35
  A 1.29 1.23 -29.4 0 0 55.00 119.51
  Q 60.88 119.43 61.89 119.61
  Q 64.05 119.99 64.05 121.20
  Z"
/>
<path fill="#8c8b8b" d="
  M 154.59 121.19
  Q 154.59 119.97 156.76 119.59
  Q 157.77 119.42 163.68 119.50
  A 1.30 1.23 29.5 0 0 164.32 119.34
  L 166.93 117.85
  A 1.06 1.06 0.0 0 1 168.51 118.76
  Q 168.51 119.26 168.51 121.23
  Q 168.50 123.20 168.50 123.71
  A 1.06 1.06 0.0 0 1 166.92 124.61
  L 164.31 123.11
  A 1.30 1.23 -29.3 0 0 163.67 122.95
  Q 157.76 123.01 156.76 122.83
  Q 154.59 122.45 154.59 121.19
  Z"
/>
<path fill="#8c8b8b" d="
  M 70.14 143.80
  Q 70.78 144.90 69.09 146.33
  Q 68.30 146.99 63.14 149.92
  A 1.30 1.24 -0.9 0 0 62.66 150.38
  L 61.16 153.00
  A 1.06 1.06 0.0 0 1 59.33 153.02
  Q 59.07 152.58 58.07 150.87
  Q 57.07 149.16 56.82 148.72
  A 1.06 1.06 0.0 0 1 57.73 147.14
  L 60.76 147.12
  A 1.30 1.24 -59.7 0 0 61.39 146.93
  Q 66.48 143.87 67.44 143.51
  Q 69.52 142.74 70.14 143.80
  Z"
/>
<path fill="#8c8b8b" d="
  M 160.55 150.89
  Q 159.56 152.60 159.30 153.03
  A 1.06 1.06 0.0 0 1 157.48 153.02
  L 155.98 150.41
  A 1.30 1.23 0.8 0 0 155.51 149.95
  Q 150.36 147.04 149.58 146.38
  Q 147.89 144.96 148.53 143.87
  Q 149.14 142.81 151.21 143.58
  Q 152.17 143.93 157.24 146.97
  A 1.30 1.23 59.6 0 0 157.88 147.15
  L 160.89 147.17
  A 1.06 1.06 0.0 0 1 161.80 148.75
  Q 161.55 149.19 160.55 150.89
  Z"
/>
<path fill="#8c8b8b" d="
  M 86.60 160.34
  Q 87.71 160.97 86.96 163.06
  Q 86.61 164.03 83.59 169.16
  A 1.31 1.24 -30.9 0 0 83.41 169.80
  L 83.42 172.83
  A 1.07 1.06 14.5 0 1 81.84 173.76
  Q 81.40 173.51 79.67 172.53
  Q 77.95 171.55 77.51 171.29
  A 1.07 1.06 44.9 0 1 77.50 169.45
  L 80.12 167.92
  A 1.31 1.24 -89.7 0 0 80.58 167.44
  Q 83.46 162.23 84.12 161.44
  Q 85.54 159.73 86.60 160.34
  Z"
/>
<path fill="#8c8b8b" d="
  M 132.03 160.27
  Q 133.11 159.66 134.52 161.39
  Q 135.18 162.19 138.05 167.45
  A 1.31 1.25 -90.0 0 0 138.51 167.94
  L 141.13 169.50
  A 1.07 1.07 0.0 0 1 141.12 171.34
  Q 140.67 171.60 138.93 172.58
  Q 137.19 173.56 136.74 173.81
  A 1.07 1.07 0.0 0 1 135.15 172.86
  L 135.18 169.81
  A 1.31 1.25 31.3 0 0 135.01 169.17
  Q 132.00 163.98 131.66 163.00
  Q 130.91 160.89 132.03 160.27
  Z"
/>
<path fill="#8c8b8b" d="
  M 109.36 166.47
  Q 110.56 166.47 110.95 168.62
  Q 111.13 169.61 111.08 175.47
  A 1.28 1.22 -60.9 0 0 111.24 176.10
  L 112.74 178.68
  A 1.05 1.05 0.0 0 1 111.85 180.25
  Q 111.35 180.26 109.40 180.27
  Q 107.44 180.27 106.94 180.27
  A 1.05 1.05 0.0 0 1 106.04 178.71
  L 107.51 176.12
  A 1.28 1.22 60.4 0 0 107.67 175.49
  Q 107.57 169.63 107.74 168.63
  Q 108.11 166.48 109.36 166.47
  Z"
/>
</svg>
